<svg xmlns="http://www.w3.org/2000/svg" version="1.1" xmlns:xlink="http://www.w3.org/1999/xlink" xmlns:svgjs="http://svgjs.com/svgjs" width="100" height="100"><svg xmlns:xlink="http://www.w3.org/1999/xlink" width="100" xmlns="http://www.w3.org/2000/svg" height="100" id="SvgjsSvg1005" viewBox="0 0 100 100" style="-webkit-print-color-adjust: exact;" fill="none" version="1.1"><g id="SvgjsG1004" width="100pt" height="100pt" version="1.1" rx="0" ry="0" style="fill: rgb(0, 0, 0);"><g id="SvgjsG1003"><g class="fills" id="SvgjsG1002"><ellipse rx="50" ry="50" cx="50" cy="50" transform="matrix(1.000000, 0.000000, 0.000000, 1.000000, 0.000000, 0.000000)" style="fill: rgb(46, 29, 60); fill-opacity: 1;"></ellipse></g></g><g id="SvgjsG1001"><g class="fills" id="SvgjsG1000"><path rx="0" ry="0" d="M36.236,81.018L35.524,81.977L35.524,80.901L35.288,80.423L35.524,79.702L36.116,79.702L36.121,81.018L36.236,81.018ZM39.553,83.414L39.317,82.338L39.553,82.338L39.673,82.815L39.553,83.414ZM43.105,88.446L42.749,87.608L42.985,87.486L43.341,87.725L43.461,88.324L43.105,88.446ZM71.644,38.957L71.288,39.916L71.644,40.754L71.644,42.673L70.931,43.394L69.627,43.993L68.679,43.272L67.259,43.511L66.075,43.151L64.891,43.151L63.471,43.628L62.999,43.151L61.459,43.151L58.970,43.988L57.906,43.988L56.843,45.547L56.486,47.106L55.658,48.304L55.538,50.340L56.010,52.498L56.958,52.975L57.430,54.052L57.310,55.971L57.189,56.809L56.718,56.809L56.597,57.530L56.362,57.651L56.241,57.413L55.177,56.453L54.706,56.453L54.706,55.976L53.993,55.615L52.573,54.295L51.861,54.057L51.269,54.534L51.389,54.773L51.269,55.011L51.038,54.656L49.854,54.417L48.910,54.656L48.198,54.417L47.370,54.539L47.606,53.701L47.962,53.340L47.490,52.503L47.610,51.066L47.967,50.705L47.606,49.984L46.658,49.746L46.422,49.624L46.066,49.746L45.709,49.507L45.002,49.863L44.410,49.863L44.054,49.502L43.697,49.980L43.105,49.980L42.749,49.863L42.749,50.101L42.513,50.822L43.341,51.300L43.461,52.259L42.869,53.219L42.869,54.894L43.226,55.255L43.105,56.692L42.393,57.651L42.273,58.728L41.560,59.804L41.325,63.877L40.020,65.552L40.020,66.629L39.317,67.836L39.909,67.958L40.029,68.197L39.558,68.796L39.678,69.273L39.914,70.350L39.914,71.071L40.978,72.630L40.506,73.706L40.862,74.067L41.454,73.945L41.574,73.467L42.046,72.868L42.282,73.107L43.110,73.229L43.582,73.706L43.702,74.783L44.174,75.382L44.053,76.580L44.646,76.819L45.238,78.017L45.830,78.017L45.830,77.418L45.950,76.940L46.186,77.778L46.778,78.616L46.778,79.454L47.250,79.693L47.721,81.851L47.250,82.216L47.014,82.576L46.893,82.216L46.066,82.815L45.945,83.536L47.486,84.135L47.721,83.297L48.078,83.536L48.198,84.495L48.910,85.094L50.450,86.531L51.042,87.009L51.514,86.648L52.578,86.770L53.526,87.130L54.239,88.689L54.831,89.410L55.779,90.009L55.899,90.486L55.663,90.725L55.663,91.685L54.710,92.523L53.882,91.802L52.934,91.923L51.750,93.000L50.330,92.640L50.330,91.919L50.922,91.198L51.042,89.639L50.330,88.918L49.266,88.918L49.030,88.319L47.610,87.842L46.778,87.009L46.066,87.847L45.709,89.045L45.238,88.329L42.990,86.653L42.870,86.176L43.341,85.698L43.341,85.099L42.870,85.090L42.513,84.252L41.450,84.130L41.450,83.409L40.265,81.851L39.553,81.851L38.961,79.819L38.013,79.697L38.013,78.860L37.421,78.382L37.421,77.905L36.473,78.382L36.473,79.342L35.765,79.342L35.293,78.621L35.057,76.824L35.293,76.346L35.173,74.787L35.885,74.427L35.885,72.391L36.477,72.513L36.833,71.675L36.241,71.553L36.954,70.476L36.718,69.999L37.430,69.039L36.838,68.918L37.074,67.120L37.310,66.283L37.782,65.445L37.902,64.125L39.086,63.287L40.390,59.931L40.982,59.570L41.103,57.773L40.390,56.575L40.511,55.016L40.039,54.056L39.803,52.498L39.211,51.899L39.331,50.700L39.095,49.624L39.451,48.786L38.739,46.511L37.319,45.074L35.779,43.754L34.359,42.079L34.359,41.119L33.397,39.439L34.461,38.840L34.581,38.002L33.989,35.245L34.461,34.524L35.409,34.047L35.289,32.970L34.225,32.493L33.989,31.294L33.397,29.853L32.569,29.492L31.265,26.735L29.845,25.776L29.488,24.938L28.776,24.217L27.948,22.658L27.120,22.420L27.000,21.582L28.420,20.983L29.368,20.262L29.012,19.424L29.012,17.865L29.724,17.144L29.488,15.347L30.316,14.149L32.328,14.987L33.512,14.027L34.697,14.027L35.053,13.428L35.053,12.108L35.765,11.509L37.069,11.748L37.426,11.148L36.949,10.320L36.949,9.721L38.133,9.243L39.673,9.122L39.673,9.000L40.266,10.198L41.685,9.838L42.749,11.036L42.985,12.833L42.157,13.433L42.870,14.753L43.697,15.113L44.646,14.392L46.542,14.392L46.542,15.352L45.950,16.550L46.542,17.627L46.542,18.464L45.950,19.302L46.422,20.622L46.422,22.420L46.542,25.177L47.962,24.456L49.266,24.095L49.387,23.019L51.043,22.298L52.819,23.258L53.883,23.136L54.831,24.334L57.079,24.095L58.263,21.699L60.039,21.338L62.407,21.938L63.119,23.496L65.367,25.172L66.672,26.131L67.143,27.330L67.023,28.294L66.551,29.015L67.143,30.335L67.023,31.772L66.787,32.610L67.735,33.330L68.799,34.529L69.747,34.650L70.696,35.011L70.460,35.484L71.764,36.321L72.000,37.042L71.644,38.240L71.644,38.957ZM56.130,58.251L55.538,58.373L54.825,57.774L54.710,56.814L56.130,58.251ZM44.645,71.071L45.001,71.792L44.765,72.869L44.053,72.269L43.933,71.549L44.645,71.071ZM43.461,70.233L44.409,69.873L44.173,70.472L43.461,70.233Z" style="fill: rgb(255, 255, 255); fill-opacity: 1;"></path></g></g></g></svg><style>@media (prefers-color-scheme: light) { :root { filter: none; } }
</style></svg>